<?xml version="1.0" encoding="UTF-8"?>
<!DOCTYPE svg PUBLIC "-//W3C//DTD SVG 1.1//EN" "http://www.w3.org/Graphics/SVG/1.1/DTD/svg11.dtd">
<svg xmlns="http://www.w3.org/2000/svg" version="1.1" width="173px" height="195px" style="shape-rendering:geometricPrecision; text-rendering:geometricPrecision; image-rendering:optimizeQuality; fill-rule:evenodd; clip-rule:evenodd" xmlns:xlink="http://www.w3.org/1999/xlink">
<g><path style="opacity:0.999" fill="#f4f4f4" d="M 81.5,1.5 C 85.9362,1.21011 90.2695,1.71011 94.5,3C 119.078,16.5361 143.244,30.7028 167,45.5C 168.908,48.2154 170.241,51.2154 171,54.5C 171.667,81.8333 171.667,109.167 171,136.5C 169.676,142.322 166.509,146.822 161.5,150C 138.457,163.521 115.124,176.521 91.5,189C 84.6116,190.344 78.2782,189.01 72.5,185C 52.3297,173.081 31.9964,161.414 11.5,150C 6.49094,146.822 3.32428,142.322 2,136.5C 1.33333,109.167 1.33333,81.8333 2,54.5C 3.32428,48.6785 6.49094,44.1785 11.5,41C 34.7657,27.5386 58.099,14.372 81.5,1.5 Z M 87.5,6.5 C 91.1055,6.79862 94.4388,7.96529 97.5,10C 119.58,22.4551 141.413,35.2884 163,48.5C 164,50.5 165,52.5 166,54.5C 166.667,81.8333 166.667,109.167 166,136.5C 165,138.5 164,140.5 163,142.5C 139.209,156.979 115.042,170.813 90.5,184C 85.0599,185.174 80.0599,184.174 75.5,181C 53.4199,168.545 31.5866,155.712 10,142.5C 9,140.5 8,138.5 7,136.5C 6.33333,109.167 6.33333,81.8333 7,54.5C 8,52.5 9,50.5 10,48.5C 33.2817,34.443 56.7817,20.7763 80.5,7.5C 82.7638,6.78138 85.0971,6.44805 87.5,6.5 Z"/></g>
<g><path style="opacity:0.674" fill="#f8f8f8" d="M 87.5,6.5 C 85.0971,6.44805 82.7638,6.78138 80.5,7.5C 81.3121,6.00691 82.6455,5.34024 84.5,5.5C 85.7261,5.51954 86.7261,5.85287 87.5,6.5 Z"/></g>
</svg>
