<svg xmlns="http://www.w3.org/2000/svg" width="523" height="587" viewBox="0 0 523 587" version="1.1"><path d="M 271.657 0.750 C 271.404 1.163, 277.861 1.500, 286.006 1.500 C 294.151 1.500, 300.294 1.169, 299.658 0.765 C 298.130 -0.204, 272.252 -0.218, 271.657 0.750 M 261 3.425 C 246.604 8.467, 237.553 14.642, 224 28.668 C 214.500 38.500, 214.500 38.500, 223.500 29.880 C 228.450 25.140, 234.956 19.360, 237.958 17.037 C 244.562 11.926, 256.577 5.760, 264.316 3.511 C 267.442 2.602, 270 1.665, 270 1.429 C 270 0.602, 267.443 1.169, 261 3.425 M 302.475 1.960 C 302.829 2.532, 303.975 3, 305.022 3 C 306.069 3, 309.209 3.900, 312 5 C 314.791 6.100, 317.620 6.969, 318.287 6.930 C 319.697 6.849, 308.850 2.604, 304.666 1.600 C 302.808 1.154, 302.054 1.278, 302.475 1.960 M 331.036 13.666 C 331.056 14.125, 332.744 15.761, 334.786 17.302 C 336.829 18.842, 342.775 24.242, 348 29.300 C 353.225 34.358, 363.150 43.898, 370.056 50.499 C 376.962 57.099, 372.912 52.815, 361.056 40.978 C 340.671 20.626, 330.954 11.785, 331.036 13.666 M 129 123.500 C 124.903 127.625, 121.775 131, 122.050 131 C 122.325 131, 125.903 127.625, 130 123.500 C 134.097 119.375, 137.225 116, 136.950 116 C 136.675 116, 133.097 119.375, 129 123.500 M 457 137.275 C 457 137.426, 460.488 140.914, 464.750 145.025 L 472.500 152.500 465.025 144.750 C 458.082 137.552, 457 136.544, 457 137.275 M 489.988 170.500 C 495.181 176, 499.839 180.950, 500.338 181.500 C 500.837 182.050, 500.770 181.600, 500.191 180.500 C 499.611 179.400, 494.953 174.450, 489.841 169.500 L 480.545 160.500 489.988 170.500 M 327 162.275 C 327 162.426, 330.488 165.914, 334.750 170.025 L 342.500 177.500 335.025 169.750 C 328.082 162.552, 327 161.544, 327 162.275 M 70.477 182.250 L 62.500 190.500 70.750 182.523 C 78.412 175.115, 79.456 174, 78.727 174 C 78.576 174, 74.864 177.713, 70.477 182.250 M 502.007 183.550 C 502.003 184.127, 502.469 185.069, 503.042 185.642 C 503.615 186.215, 505.853 190.017, 508.016 194.092 C 510.178 198.166, 511.959 201.150, 511.974 200.721 C 512.010 199.650, 506.559 189.167, 504.059 185.500 C 502.934 183.850, 502.010 182.972, 502.007 183.550 M 25.462 227.250 C 19.804 233.539, 14.237 241.601, 10.638 248.717 C 6.568 256.766, 7.570 256.409, 11.890 248.272 C 16.096 240.349, 22.311 231.575, 27.844 225.750 C 29.803 223.688, 31.131 222, 30.796 222 C 30.460 222, 28.060 224.363, 25.462 227.250 M 499.696 281.250 C 497.963 283.793, 489.663 292.465, 460.651 322.048 C 449.568 333.350, 453.814 329.300, 470.087 313.048 C 495.563 287.605, 503.541 279, 501.650 279 C 501.419 279, 500.540 280.012, 499.696 281.250 M 11.016 323 C 12.882 326.623, 19.983 337, 20.596 337 C 21.208 337, 21.459 337.417, 15.486 328.500 C 10.274 320.720, 9.096 319.270, 11.016 323 M 33.001 349.306 C 65.814 382.996, 266.344 582.616, 269.177 584.409 C 273.390 587.076, 284.914 587.309, 289.500 584.818 C 292.731 583.064, 307.414 568.889, 323.495 551.998 C 328.993 546.224, 324.268 550.596, 312.995 561.713 C 300.056 574.474, 291.129 582.493, 288.782 583.463 C 283.891 585.485, 273.797 585.449, 269.700 583.395 C 267.940 582.513, 211.376 526.825, 144.001 459.645 C 76.627 392.465, 26.677 342.813, 33.001 349.306 M 429.479 353.250 L 420.500 362.500 429.750 353.521 C 438.341 345.181, 439.455 344, 438.729 344 C 438.580 344, 434.418 348.163, 429.479 353.250 M 205.500 374 C 217.591 386.100, 227.708 396, 227.983 396 C 228.258 396, 218.591 386.100, 206.500 374 C 194.409 361.900, 184.292 352, 184.017 352 C 183.742 352, 193.409 361.900, 205.500 374 M 427.500 379 C 434.083 385.600, 439.694 391, 439.969 391 C 440.244 391, 435.083 385.600, 428.500 379 C 421.917 372.400, 416.306 367, 416.031 367 C 415.756 367, 420.917 372.400, 427.500 379 M 448.881 400.564 C 453.314 405.549, 457.611 411.174, 458.431 413.064 C 459.251 414.954, 459.938 415.825, 459.957 415 C 460.016 412.526, 456.634 407.946, 448.514 399.500 C 440.823 391.500, 440.823 391.500, 448.881 400.564 M 458 427.861 C 458 429.567, 412.523 474.157, 408.691 476.208 C 404.745 478.321, 398.063 478.471, 393.468 476.551 C 389.233 474.782, 388.899 475.379, 392.950 477.474 C 397.071 479.605, 405.774 479.437, 409.500 477.155 C 413.126 474.933, 456.656 432.511, 458.125 429.767 C 458.695 428.701, 458.901 427.567, 458.581 427.248 C 458.261 426.928, 458 427.204, 458 427.861 M 292 461.500 C 301.613 471.125, 309.704 479, 309.979 479 C 310.254 479, 302.613 471.125, 293 461.500 C 283.387 451.875, 275.296 444, 275.021 444 C 274.746 444, 282.387 451.875, 292 461.500" stroke="none" fill="#e3e5e4" fill-rule="evenodd"/><path d="M 264 3.478 C 253.925 6.915, 243.971 12.331, 235.886 18.774 C 224.378 27.944, 27.698 225.126, 20.737 234.472 C 2.218 259.336, -2.357 284.771, 6.867 311.584 C 12.915 329.168, 10.155 326.186, 143.500 459.160 C 210.600 526.073, 267.075 581.759, 269 582.906 C 273.483 585.579, 283.773 585.740, 289.257 583.224 C 293.525 581.266, 340.210 535.266, 342.767 530.500 C 345.251 525.869, 344.892 518.157, 341.964 513.264 C 340.609 510.999, 304.806 474.126, 262.402 431.323 C 117.525 285.083, 128.289 296.207, 127.110 291.524 C 126.060 287.352, 126.621 283.378, 128.824 279.389 C 129.398 278.350, 162.516 244.875, 202.419 205 C 249.907 157.547, 276.272 131.904, 278.736 130.776 C 283.189 128.737, 286.777 128.577, 292.384 130.167 C 295.894 131.163, 303.156 137.963, 341.736 176.378 C 366.929 201.464, 387.694 222.942, 388.600 224.853 C 389.496 226.740, 390.420 229.907, 390.654 231.892 C 391.480 238.877, 388.035 243.466, 363.528 268.023 L 340.555 291.043 311.028 261.627 C 294.787 245.448, 280.437 231.670, 279.138 231.010 C 275.454 229.138, 267.393 229.593, 263.710 231.880 C 259.058 234.770, 215.559 278.911, 213.630 282.700 C 211.591 286.704, 211.535 293.218, 213.504 297.367 C 215.853 302.317, 388.717 474.575, 393.218 476.451 C 398.045 478.462, 404.679 478.358, 408.673 476.208 C 413.326 473.703, 455.986 431.451, 458.152 427.202 C 460.494 422.608, 460.470 417.632, 458.080 412.369 C 456.884 409.734, 448.859 400.752, 435.922 387.569 L 415.640 366.899 447.229 335.200 C 487.762 294.525, 503 278.718, 503 277.348 C 503 277.041, 504.392 274.727, 506.094 272.206 C 507.795 269.685, 509.366 266.919, 509.585 266.061 C 509.803 265.202, 511.065 261.319, 512.389 257.432 C 517.436 242.612, 518.255 224.653, 514.528 210.500 C 513.030 204.812, 507.239 191.943, 503.308 185.569 C 500.712 181.361, 488.218 168.519, 431.677 111.949 C 382.171 62.418, 341.826 22.945, 335 17.362 C 333.075 15.788, 331.350 14.162, 331.167 13.750 C 330.983 13.337, 330.283 13, 329.611 13 C 328.939 13, 326.956 11.943, 325.205 10.651 C 323.454 9.360, 318.079 7.061, 313.261 5.544 C 308.442 4.027, 303.825 2.450, 302.999 2.040 C 302.174 1.630, 294.524 1.286, 285.999 1.277 C 272.584 1.262, 269.626 1.558, 264 3.478" stroke="none" fill="#fbfbfb" fill-rule="evenodd"/></svg>
