<svg xmlns="http://www.w3.org/2000/svg" width="609" height="609" viewBox="0 0 609 609" version="1.1"><path d="M 303.500 7.673 C 294.685 8.688, 298.903 9.500, 312.987 9.500 C 321.170 9.500, 327.300 9.185, 326.609 8.799 C 324.963 7.880, 308.619 7.084, 303.500 7.673 M 288 11.425 C 273.604 16.467, 264.553 22.642, 251 36.668 L 241.500 46.500 250.500 37.880 C 266.072 22.966, 277.659 15.481, 291.316 11.511 C 294.442 10.602, 297 9.665, 297 9.429 C 297 8.602, 294.443 9.169, 288 11.425 M 329.475 9.960 C 329.829 10.532, 330.975 11, 332.022 11 C 333.069 11, 336.209 11.900, 339 13 C 341.791 14.100, 344.620 14.969, 345.287 14.930 C 346.697 14.849, 335.850 10.604, 331.666 9.600 C 329.808 9.154, 329.054 9.278, 329.475 9.960 M 347 15.500 C 347 15.775, 347.225 16, 347.500 16 C 347.775 16, 348 15.775, 348 15.500 C 348 15.225, 347.775 15, 347.500 15 C 347.225 15, 347 15.225, 347 15.500 M 349 16.500 C 349 16.775, 349.225 17, 349.500 17 C 349.775 17, 350 16.775, 350 16.500 C 350 16.225, 349.775 16, 349.500 16 C 349.225 16, 349 16.225, 349 16.500 M 352.861 18.944 C 354.159 20.075, 355.734 20.993, 356.361 20.985 C 357.554 20.969, 355.892 19.645, 352.500 17.910 C 350.928 17.106, 351.005 17.327, 352.861 18.944 M 358 21.916 C 358 22.512, 358.433 23, 358.961 23 C 359.490 23, 371.302 33.853, 385.211 47.119 L 410.500 71.237 388.500 49.347 C 366.681 27.636, 358 19.829, 358 21.916 M 239 48.500 C 239 48.775, 239.225 49, 239.500 49 C 239.775 49, 240 48.775, 240 48.500 C 240 48.225, 239.775 48, 239.500 48 C 239.225 48, 239 48.225, 239 48.500 M 235.872 51.750 C 234.629 53.336, 234.664 53.371, 236.250 52.128 C 237.916 50.821, 238.445 50, 237.622 50 C 237.415 50, 236.627 50.788, 235.872 51.750 M 233 54.500 C 233 54.775, 233.225 55, 233.500 55 C 233.775 55, 234 54.775, 234 54.500 C 234 54.225, 233.775 54, 233.500 54 C 233.225 54, 233 54.225, 233 54.500 M 224.966 62.750 L 219.500 68.500 225.250 63.034 C 230.592 57.956, 231.458 57, 230.716 57 C 230.560 57, 227.972 59.587, 224.966 62.750 M 218 69.500 C 218 69.775, 218.225 70, 218.500 70 C 218.775 70, 219 69.775, 219 69.500 C 219 69.225, 218.775 69, 218.500 69 C 218.225 69, 218 69.225, 218 69.500 M 211.946 75.750 C 208.500 79.500, 208.500 79.500, 212.250 76.054 C 214.313 74.158, 216 72.471, 216 72.304 C 216 71.540, 215.154 72.260, 211.946 75.750 M 415.500 77 C 418.209 79.750, 420.650 82, 420.925 82 C 421.200 82, 419.209 79.750, 416.500 77 C 413.791 74.250, 411.350 72, 411.075 72 C 410.800 72, 412.791 74.250, 415.500 77 M 207 80.500 C 207 80.775, 207.225 81, 207.500 81 C 207.775 81, 208 80.775, 208 80.500 C 208 80.225, 207.775 80, 207.500 80 C 207.225 80, 207 80.225, 207 80.500 M 203.405 84.155 C 202.962 84.870, 203.130 85.038, 203.845 84.595 C 204.998 83.883, 205.393 83, 204.559 83 C 204.316 83, 203.797 83.520, 203.405 84.155 M 423.500 85 C 424.495 86.100, 425.535 87, 425.810 87 C 426.085 87, 425.495 86.100, 424.500 85 C 423.505 83.900, 422.465 83, 422.190 83 C 421.915 83, 422.505 83.900, 423.500 85 M 428.500 90 C 429.495 91.100, 430.535 92, 430.810 92 C 431.085 92, 430.495 91.100, 429.500 90 C 428.505 88.900, 427.465 88, 427.190 88 C 426.915 88, 427.505 88.900, 428.500 90 M 195.437 92.250 C 192.500 95.500, 192.500 95.500, 195.750 92.563 C 198.779 89.825, 199.460 89, 198.687 89 C 198.515 89, 197.052 90.463, 195.437 92.250 M 435 96.500 C 436.866 98.425, 438.617 100, 438.892 100 C 439.167 100, 437.866 98.425, 436 96.500 C 434.134 94.575, 432.383 93, 432.108 93 C 431.833 93, 433.134 94.575, 435 96.500 M 187.872 99.750 C 186.629 101.336, 186.664 101.371, 188.250 100.128 C 189.213 99.373, 190 98.585, 190 98.378 C 190 97.555, 189.179 98.084, 187.872 99.750 M 184.405 103.155 C 183.962 103.870, 184.130 104.038, 184.845 103.595 C 185.998 102.883, 186.393 102, 185.559 102 C 185.316 102, 184.797 102.520, 184.405 103.155 M 441 102.378 C 441 102.585, 441.788 103.373, 442.750 104.128 C 444.336 105.371, 444.371 105.336, 443.128 103.750 C 441.821 102.084, 441 101.555, 441 102.378 M 178.946 108.750 C 175.500 112.500, 175.500 112.500, 179.250 109.054 C 181.313 107.158, 183 105.471, 183 105.304 C 183 104.540, 182.154 105.260, 178.946 108.750 M 449.500 111 C 451.648 113.200, 453.631 115, 453.906 115 C 454.181 115, 452.648 113.200, 450.500 111 C 448.352 108.800, 446.369 107, 446.094 107 C 445.819 107, 447.352 108.800, 449.500 111 M 170.872 116.750 C 169.629 118.336, 169.664 118.371, 171.250 117.128 C 172.213 116.373, 173 115.585, 173 115.378 C 173 114.555, 172.179 115.084, 170.872 116.750 M 455 116.500 C 455 116.775, 455.225 117, 455.500 117 C 455.775 117, 456 116.775, 456 116.500 C 456 116.225, 455.775 116, 455.500 116 C 455.225 116, 455 116.225, 455 116.500 M 460 121.500 C 461.292 122.875, 462.574 124, 462.849 124 C 463.124 124, 462.292 122.875, 461 121.500 C 459.708 120.125, 458.426 119, 458.151 119 C 457.876 119, 458.708 120.125, 460 121.500 M 165.872 121.750 C 164.629 123.336, 164.664 123.371, 166.250 122.128 C 167.213 121.373, 168 120.585, 168 120.378 C 168 119.555, 167.179 120.084, 165.872 121.750 M 156 131.500 C 151.903 135.625, 148.775 139, 149.050 139 C 149.325 139, 152.903 135.625, 157 131.500 C 161.097 127.375, 164.225 124, 163.950 124 C 163.675 124, 160.097 127.375, 156 131.500 M 464 125.378 C 464 125.585, 464.788 126.373, 465.750 127.128 C 467.336 128.371, 467.371 128.336, 466.128 126.750 C 464.821 125.084, 464 124.555, 464 125.378 M 472 133.500 C 473.292 134.875, 474.574 136, 474.849 136 C 475.124 136, 474.292 134.875, 473 133.500 C 471.708 132.125, 470.426 131, 470.151 131 C 469.876 131, 470.708 132.125, 472 133.500 M 310.750 137.706 C 311.988 137.944, 314.012 137.944, 315.250 137.706 C 316.488 137.467, 315.475 137.272, 313 137.272 C 310.525 137.272, 309.512 137.467, 310.750 137.706 M 476 137.500 C 476 137.775, 476.225 138, 476.500 138 C 476.775 138, 477 137.775, 477 137.500 C 477 137.225, 476.775 137, 476.500 137 C 476.225 137, 476 137.225, 476 137.500 M 306.333 138.667 C 306.700 139.033, 307.300 139.033, 307.667 138.667 C 308.033 138.300, 307.733 138, 307 138 C 306.267 138, 305.967 138.300, 306.333 138.667 M 318.333 138.667 C 318.700 139.033, 319.300 139.033, 319.667 138.667 C 320.033 138.300, 319.733 138, 319 138 C 318.267 138, 317.967 138.300, 318.333 138.667 M 304 139.500 C 304 139.775, 304.225 140, 304.500 140 C 304.775 140, 305 139.775, 305 139.500 C 305 139.225, 304.775 139, 304.500 139 C 304.225 139, 304 139.225, 304 139.500 M 321 139.393 C 321 139.609, 321.698 140.054, 322.552 140.382 C 323.442 140.723, 323.843 140.555, 323.493 139.989 C 322.906 139.038, 321 138.583, 321 139.393 M 478 139.378 C 478 139.585, 478.788 140.373, 479.750 141.128 C 481.336 142.371, 481.371 142.336, 480.128 140.750 C 478.821 139.084, 478 138.555, 478 139.378 M 301.405 141.155 C 300.962 141.870, 301.130 142.038, 301.845 141.595 C 302.480 141.203, 303 140.684, 303 140.441 C 303 139.607, 302.117 140.002, 301.405 141.155 M 146 141.500 C 146 141.775, 146.225 142, 146.500 142 C 146.775 142, 147 141.775, 147 141.500 C 147 141.225, 146.775 141, 146.500 141 C 146.225 141, 146 141.225, 146 141.500 M 325 141.378 C 325 141.585, 325.788 142.373, 326.750 143.128 C 328.336 144.371, 328.371 144.336, 327.128 142.750 C 325.821 141.084, 325 140.555, 325 141.378 M 482 143.500 C 482 143.775, 482.225 144, 482.500 144 C 482.775 144, 483 143.775, 483 143.500 C 483 143.225, 482.775 143, 482.500 143 C 482.225 143, 482 143.225, 482 143.500 M 141.872 145.750 C 140.629 147.336, 140.664 147.371, 142.250 146.128 C 143.916 144.821, 144.445 144, 143.622 144 C 143.415 144, 142.627 144.787, 141.872 145.750 M 484 145.275 C 484 145.426, 487.488 148.914, 491.750 153.025 L 499.500 160.500 492.025 152.750 C 485.082 145.552, 484 144.544, 484 145.275 M 333 149.500 C 334.866 151.425, 336.617 153, 336.892 153 C 337.167 153, 335.866 151.425, 334 149.500 C 332.134 147.575, 330.383 146, 330.108 146 C 329.833 146, 331.134 147.575, 333 149.500 M 137.405 150.155 C 136.962 150.870, 137.130 151.038, 137.845 150.595 C 138.480 150.203, 139 149.684, 139 149.441 C 139 148.607, 138.117 149.002, 137.405 150.155 M 132 155.500 C 132 155.775, 132.225 156, 132.500 156 C 132.775 156, 133 155.775, 133 155.500 C 133 155.225, 132.775 155, 132.500 155 C 132.225 155, 132 155.225, 132 155.500 M 128.405 159.250 C 126.500 161.500, 126.500 161.500, 128.750 159.595 C 130.864 157.805, 131.455 157, 130.655 157 C 130.465 157, 129.453 158.012, 128.405 159.250 M 342 158.500 C 342 158.775, 342.225 159, 342.500 159 C 342.775 159, 343 158.775, 343 158.500 C 343 158.225, 342.775 158, 342.500 158 C 342.225 158, 342 158.225, 342 158.500 M 344 160.500 C 344 160.775, 344.225 161, 344.500 161 C 344.775 161, 345 160.775, 345 160.500 C 345 160.225, 344.775 160, 344.500 160 C 344.225 160, 344 160.225, 344 160.500 M 503 164.500 C 504.866 166.425, 506.617 168, 506.892 168 C 507.167 168, 505.866 166.425, 504 164.500 C 502.134 162.575, 500.383 161, 500.108 161 C 499.833 161, 501.134 162.575, 503 164.500 M 124 163.500 C 124 163.775, 124.225 164, 124.500 164 C 124.775 164, 125 163.775, 125 163.500 C 125 163.225, 124.775 163, 124.500 163 C 124.225 163, 124 163.225, 124 163.500 M 347.500 164 C 347.840 164.550, 348.343 165, 348.618 165 C 348.893 165, 348.840 164.550, 348.500 164 C 348.160 163.450, 347.657 163, 347.382 163 C 347.107 163, 347.160 163.450, 347.500 164 M 118.405 169.155 C 117.962 169.870, 118.130 170.038, 118.845 169.595 C 119.480 169.203, 120 168.684, 120 168.441 C 120 167.607, 119.117 168.002, 118.405 169.155 M 516.988 178.500 C 522.181 184, 526.839 188.950, 527.338 189.500 C 527.837 190.050, 527.770 189.600, 527.191 188.500 C 526.611 187.400, 521.953 182.450, 516.841 177.500 L 507.545 168.500 516.988 178.500 M 354 170.275 C 354 170.426, 357.488 173.914, 361.750 178.025 L 369.500 185.500 362.025 177.750 C 355.082 170.552, 354 169.544, 354 170.275 M 116 171.500 C 116 171.775, 116.225 172, 116.500 172 C 116.775 172, 117 171.775, 117 171.500 C 117 171.225, 116.775 171, 116.500 171 C 116.225 171, 116 171.225, 116 171.500 M 109.946 177.750 C 106.500 181.500, 106.500 181.500, 110.250 178.054 C 113.740 174.846, 114.460 174, 113.696 174 C 113.529 174, 111.842 175.688, 109.946 177.750 M 97.477 190.250 L 89.500 198.500 97.750 190.523 C 105.412 183.115, 106.456 182, 105.727 182 C 105.576 182, 101.864 185.713, 97.477 190.250 M 370 186.500 C 370 186.775, 370.225 187, 370.500 187 C 370.775 187, 371 186.775, 371 186.500 C 371 186.225, 370.775 186, 370.500 186 C 370.225 186, 370 186.225, 370 186.500 M 372 188.500 C 372 188.775, 372.225 189, 372.500 189 C 372.775 189, 373 188.775, 373 188.500 C 373 188.225, 372.775 188, 372.500 188 C 372.225 188, 372 188.225, 372 188.500 M 374 190.378 C 374 190.585, 374.788 191.373, 375.750 192.128 C 377.336 193.371, 377.371 193.336, 376.128 191.750 C 374.821 190.084, 374 189.555, 374 190.378 M 529.007 191.550 C 529.003 192.127, 529.469 193.069, 530.042 193.642 C 530.615 194.215, 532.853 198.017, 535.016 202.092 C 537.178 206.166, 538.959 209.150, 538.974 208.721 C 539.010 207.650, 533.559 197.167, 531.059 193.500 C 529.934 191.850, 529.010 190.972, 529.007 191.550 M 378 194.500 C 378 194.775, 378.225 195, 378.500 195 C 378.775 195, 379 194.775, 379 194.500 C 379 194.225, 378.775 194, 378.500 194 C 378.225 194, 378 194.225, 378 194.500 M 83.946 203.750 C 80.500 207.500, 80.500 207.500, 84.250 204.054 C 87.740 200.846, 88.460 200, 87.696 200 C 87.529 200, 85.842 201.688, 83.946 203.750 M 74.946 212.750 C 71.500 216.500, 71.500 216.500, 75.250 213.054 C 78.740 209.846, 79.460 209, 78.696 209 C 78.529 209, 76.842 210.688, 74.946 212.750 M 539 211 C 539 211.733, 539.300 212.033, 539.667 211.667 C 540.033 211.300, 540.033 210.700, 539.667 210.333 C 539.300 209.967, 539 210.267, 539 211 M 540 214 C 540 214.733, 540.300 215.033, 540.667 214.667 C 541.033 214.300, 541.033 213.700, 540.667 213.333 C 540.300 212.967, 540 213.267, 540 214 M 541 217 C 541 217.733, 541.300 218.033, 541.667 217.667 C 542.033 217.300, 542.033 216.700, 541.667 216.333 C 541.300 215.967, 541 216.267, 541 217 M 67.872 219.750 C 66.629 221.336, 66.664 221.371, 68.250 220.128 C 69.213 219.373, 70 218.585, 70 218.378 C 70 217.555, 69.179 218.084, 67.872 219.750 M 542.079 221.583 C 542.127 222.748, 542.364 222.985, 542.683 222.188 C 542.972 221.466, 542.936 220.603, 542.604 220.271 C 542.272 219.939, 542.036 220.529, 542.079 221.583 M 61.946 225.750 C 58.500 229.500, 58.500 229.500, 62.250 226.054 C 65.740 222.846, 66.460 222, 65.696 222 C 65.529 222, 63.842 223.688, 61.946 225.750 M 543.158 227 C 543.158 228.375, 543.385 228.938, 543.662 228.250 C 543.940 227.563, 543.940 226.438, 543.662 225.750 C 543.385 225.063, 543.158 225.625, 543.158 227 M 413 229.500 C 413 229.775, 413.225 230, 413.500 230 C 413.775 230, 414 229.775, 414 229.500 C 414 229.225, 413.775 229, 413.500 229 C 413.225 229, 413 229.225, 413 229.500 M 52.462 235.250 C 46.804 241.539, 41.237 249.601, 37.638 256.717 C 33.630 264.641, 34.538 264.467, 38.776 256.498 C 43.166 248.245, 45.637 244.667, 52.761 236.250 C 59.190 228.654, 58.992 227.991, 52.462 235.250 M 415 232.500 C 415 232.775, 415.225 233, 415.500 233 C 415.775 233, 416 232.775, 416 232.500 C 416 232.225, 415.775 232, 415.500 232 C 415.225 232, 415 232.225, 415 232.500 M 544.320 239 C 544.320 242.575, 544.502 244.037, 544.723 242.250 C 544.945 240.463, 544.945 237.537, 544.723 235.750 C 544.502 233.963, 544.320 235.425, 544.320 239 M 295.750 237.662 C 296.438 237.940, 297.563 237.940, 298.250 237.662 C 298.938 237.385, 298.375 237.158, 297 237.158 C 295.625 237.158, 295.063 237.385, 295.750 237.662 M 300.750 237.662 C 301.438 237.940, 302.563 237.940, 303.250 237.662 C 303.938 237.385, 303.375 237.158, 302 237.158 C 300.625 237.158, 300.063 237.385, 300.750 237.662 M 292 238.500 C 292 238.775, 292.225 239, 292.500 239 C 292.775 239, 293 238.775, 293 238.500 C 293 238.225, 292.775 238, 292.500 238 C 292.225 238, 292 238.225, 292 238.500 M 305 238.393 C 305 238.609, 305.698 239.054, 306.552 239.382 C 307.442 239.723, 307.843 239.555, 307.493 238.989 C 306.906 238.038, 305 237.583, 305 238.393 M 289.405 240.155 C 288.962 240.870, 289.130 241.038, 289.845 240.595 C 290.480 240.203, 291 239.684, 291 239.441 C 291 238.607, 290.117 239.002, 289.405 240.155 M 310 241.378 C 310 241.585, 310.788 242.373, 311.750 243.128 C 313.336 244.371, 313.371 244.336, 312.128 242.750 C 310.821 241.084, 310 240.555, 310 241.378 M 543.158 250 C 543.158 251.375, 543.385 251.938, 543.662 251.250 C 543.940 250.563, 543.940 249.438, 543.662 248.750 C 543.385 248.063, 543.158 248.625, 543.158 250 M 408.462 257.250 L 403.500 262.500 408.750 257.538 C 413.628 252.926, 414.459 252, 413.712 252 C 413.554 252, 411.192 254.363, 408.462 257.250 M 542.079 255.583 C 542.127 256.748, 542.364 256.985, 542.683 256.188 C 542.972 255.466, 542.936 254.603, 542.604 254.271 C 542.272 253.939, 542.036 254.529, 542.079 255.583 M 541 260 C 541 260.733, 541.300 261.033, 541.667 260.667 C 542.033 260.300, 542.033 259.700, 541.667 259.333 C 541.300 258.967, 541 259.267, 541 260 M 540.079 263.583 C 540.127 264.748, 540.364 264.985, 540.683 264.188 C 540.972 263.466, 540.936 262.603, 540.604 262.271 C 540.272 261.939, 540.036 262.529, 540.079 263.583 M 402 263.500 C 402 263.775, 402.225 264, 402.500 264 C 402.775 264, 403 263.775, 403 263.500 C 403 263.225, 402.775 263, 402.500 263 C 402.225 263, 402 263.225, 402 263.500 M 34 264.500 C 34 264.775, 34.225 265, 34.500 265 C 34.775 265, 35 264.775, 35 264.500 C 35 264.225, 34.775 264, 34.500 264 C 34.225 264, 34 264.225, 34 264.500 M 333.500 265 C 333.840 265.550, 334.343 266, 334.618 266 C 334.893 266, 334.840 265.550, 334.500 265 C 334.160 264.450, 333.657 264, 333.382 264 C 333.107 264, 333.160 264.450, 333.500 265 M 33 267 C 33 267.733, 33.300 268.033, 33.667 267.667 C 34.033 267.300, 34.033 266.700, 33.667 266.333 C 33.300 265.967, 33 266.267, 33 267 M 539 267 C 539 267.733, 539.300 268.033, 539.667 267.667 C 540.033 267.300, 540.033 266.700, 539.667 266.333 C 539.300 265.967, 539 266.267, 539 267 M 337 268.500 C 337 268.775, 337.225 269, 337.500 269 C 337.775 269, 338 268.775, 338 268.500 C 338 268.225, 337.775 268, 337.500 268 C 337.225 268, 337 268.225, 337 268.500 M 32 270 C 32 270.733, 32.300 271.033, 32.667 270.667 C 33.033 270.300, 33.033 269.700, 32.667 269.333 C 32.300 268.967, 32 269.267, 32 270 M 538 269.500 C 538 269.775, 538.225 270, 538.500 270 C 538.775 270, 539 269.775, 539 269.500 C 539 269.225, 538.775 269, 538.500 269 C 538.225 269, 538 269.225, 538 269.500 M 536.564 272.707 C 536.022 274.132, 536.136 274.247, 537.124 273.267 C 537.808 272.588, 538.115 271.781, 537.807 271.474 C 537.499 271.166, 536.940 271.721, 536.564 272.707 M 31.079 273.583 C 31.127 274.748, 31.364 274.985, 31.683 274.188 C 31.972 273.466, 31.936 272.603, 31.604 272.271 C 31.272 271.939, 31.036 272.529, 31.079 273.583 M 30.079 277.583 C 30.127 278.748, 30.364 278.985, 30.683 278.188 C 30.972 277.466, 30.936 276.603, 30.604 276.271 C 30.272 275.939, 30.036 276.529, 30.079 277.583 M 533.144 279.750 C 532.053 282.300, 532.078 282.359, 533.484 280.559 C 534.318 279.491, 535 278.254, 535 277.809 C 535 276.289, 534.322 276.999, 533.144 279.750 M 349 280.378 C 349 280.585, 349.788 281.373, 350.750 282.128 C 352.336 283.371, 352.371 283.336, 351.128 281.750 C 349.821 280.084, 349 279.555, 349 280.378 M 29.158 284 C 29.158 285.375, 29.385 285.938, 29.662 285.250 C 29.940 284.563, 29.940 283.438, 29.662 282.750 C 29.385 282.063, 29.158 282.625, 29.158 284 M 159 282.500 C 159 282.775, 159.225 283, 159.500 283 C 159.775 283, 160 282.775, 160 282.500 C 160 282.225, 159.775 282, 159.500 282 C 159.225 282, 159 282.225, 159 282.500 M 530.459 284.067 C 530.096 284.653, 530.014 285.348, 530.276 285.610 C 530.538 285.872, 531.019 285.392, 531.345 284.543 C 532.021 282.781, 531.445 282.471, 530.459 284.067 M 156 286.500 C 156 286.775, 156.225 287, 156.500 287 C 156.775 287, 157 286.775, 157 286.500 C 157 286.225, 156.775 286, 156.500 286 C 156.225 286, 156 286.225, 156 286.500 M 241.872 287.750 C 240.629 289.336, 240.664 289.371, 242.250 288.128 C 243.916 286.821, 244.445 286, 243.622 286 C 243.415 286, 242.627 286.788, 241.872 287.750 M 526.694 289.250 C 525.186 291.460, 514.413 302.679, 483.209 334.538 C 474.569 343.359, 480.814 337.284, 497.087 321.038 C 522.562 295.605, 530.542 287, 528.650 287 C 528.419 287, 527.539 288.012, 526.694 289.250 M 358 289.500 C 358 289.775, 358.225 290, 358.500 290 C 358.775 290, 359 289.775, 359 289.500 C 359 289.225, 358.775 289, 358.500 289 C 358.225 289, 358 289.225, 358 289.500 M 362 293.313 C 362 293.485, 363.462 294.948, 365.250 296.563 C 368.500 299.500, 368.500 299.500, 365.563 296.250 C 362.825 293.221, 362 292.540, 362 293.313 M 369 297.500 C 369 297.775, 369.225 298, 369.500 298 C 369.775 298, 370 297.775, 370 297.500 C 370 297.225, 369.775 297, 369.500 297 C 369.225 297, 369 297.225, 369 297.500 M 29.195 303.500 C 29.215 305.150, 29.439 305.704, 29.693 304.731 C 29.947 303.758, 29.930 302.408, 29.656 301.731 C 29.382 301.054, 29.175 301.850, 29.195 303.500 M 155 303.500 C 155 303.775, 155.225 304, 155.500 304 C 155.775 304, 156 303.775, 156 303.500 C 156 303.225, 155.775 303, 155.500 303 C 155.225 303, 155 303.225, 155 303.500 M 158 307.500 C 158 307.775, 158.225 308, 158.500 308 C 158.775 308, 159 307.775, 159 307.500 C 159 307.225, 158.775 307, 158.500 307 C 158.225 307, 158 307.225, 158 307.500 M 241 307.500 C 241 307.775, 241.225 308, 241.500 308 C 241.775 308, 242 307.775, 242 307.500 C 242 307.225, 241.775 307, 241.500 307 C 241.225 307, 241 307.225, 241 307.500 M 30.079 309.583 C 30.127 310.748, 30.364 310.985, 30.683 310.188 C 30.972 309.466, 30.936 308.603, 30.604 308.271 C 30.272 307.939, 30.036 308.529, 30.079 309.583 M 161 310.500 C 161 310.775, 161.225 311, 161.500 311 C 161.775 311, 162 310.775, 162 310.500 C 162 310.225, 161.775 310, 161.500 310 C 161.225 310, 161 310.225, 161 310.500 M 31.079 313.583 C 31.127 314.748, 31.364 314.985, 31.683 314.188 C 31.972 313.466, 31.936 312.603, 31.604 312.271 C 31.272 311.939, 31.036 312.529, 31.079 313.583 M 32 317 C 32 317.733, 32.300 318.033, 32.667 317.667 C 33.033 317.300, 33.033 316.700, 32.667 316.333 C 32.300 315.967, 32 316.267, 32 317 M 169 318.500 C 169 318.775, 169.225 319, 169.500 319 C 169.775 319, 170 318.775, 170 318.500 C 170 318.225, 169.775 318, 169.500 318 C 169.225 318, 169 318.225, 169 318.500 M 33 320 C 33 320.733, 33.300 321.033, 33.667 320.667 C 34.033 320.300, 34.033 319.700, 33.667 319.333 C 33.300 318.967, 33 319.267, 33 320 M 34.026 322.283 C 33.948 324.603, 46.133 345, 47.596 345 C 48.258 345, 47.292 343.366, 44.182 339.223 C 42.828 337.421, 39.996 332.696, 37.887 328.723 C 35.778 324.750, 34.041 321.852, 34.026 322.283 M 174 323.500 C 174 323.775, 174.225 324, 174.500 324 C 174.775 324, 175 323.775, 175 323.500 C 175 323.225, 174.775 323, 174.500 323 C 174.225 323, 174 323.225, 174 323.500 M 176.500 326 C 176.840 326.550, 177.343 327, 177.618 327 C 177.893 327, 177.840 326.550, 177.500 326 C 177.160 325.450, 176.657 325, 176.382 325 C 176.107 325, 176.160 325.450, 176.500 326 M 182 331.500 C 182 331.775, 182.225 332, 182.500 332 C 182.775 332, 183 331.775, 183 331.500 C 183 331.225, 182.775 331, 182.500 331 C 182.225 331, 182 331.225, 182 331.500 M 185 334.500 C 185 334.775, 185.225 335, 185.500 335 C 185.775 335, 186 334.775, 186 334.500 C 186 334.225, 185.775 334, 185.500 334 C 185.225 334, 185 334.225, 185 334.500 M 187 336.500 C 187 336.775, 187.225 337, 187.500 337 C 187.775 337, 188 336.775, 188 336.500 C 188 336.225, 187.775 336, 187.500 336 C 187.225 336, 187 336.225, 187 336.500 M 195.500 345 C 195.840 345.550, 196.343 346, 196.618 346 C 196.893 346, 196.840 345.550, 196.500 345 C 196.160 344.450, 195.657 344, 195.382 344 C 195.107 344, 195.160 344.450, 195.500 345 M 60 357.306 C 92.925 391.107, 293.347 590.617, 296.177 592.409 C 308.607 600.279, 316.798 595.392, 350.495 559.998 C 355.993 554.224, 351.268 558.596, 339.995 569.713 C 317.995 591.411, 315.709 593, 306.500 593 C 296.241 593, 301.153 597.542, 171 467.704 C 103.625 400.492, 53.675 350.813, 60 357.306 M 198 347.500 C 198 347.775, 198.225 348, 198.500 348 C 198.775 348, 199 347.775, 199 347.500 C 199 347.225, 198.775 347, 198.500 347 C 198.225 347, 198 347.225, 198 347.500 M 201 350.500 C 201 350.775, 201.225 351, 201.500 351 C 201.775 351, 202 350.775, 202 350.500 C 202 350.225, 201.775 350, 201.500 350 C 201.225 350, 201 350.225, 201 350.500 M 206 355.500 C 207.866 357.425, 209.617 359, 209.892 359 C 210.167 359, 208.866 357.425, 207 355.500 C 205.134 353.575, 203.383 352, 203.108 352 C 202.833 352, 204.134 353.575, 206 355.500 M 456.479 361.250 L 447.500 370.500 456.750 361.521 C 465.341 353.181, 466.455 352, 465.729 352 C 465.580 352, 461.418 356.163, 456.479 361.250 M 232.500 382 C 244.591 394.100, 254.708 404, 254.983 404 C 255.258 404, 245.591 394.100, 233.500 382 C 221.409 369.900, 211.292 360, 211.017 360 C 210.742 360, 220.409 369.900, 232.500 382 M 454.500 387 C 461.083 393.600, 466.694 399, 466.969 399 C 467.244 399, 462.083 393.600, 455.500 387 C 448.917 380.400, 443.306 375, 443.031 375 C 442.756 375, 447.917 380.400, 454.500 387 M 475.881 408.564 C 480.314 413.549, 484.611 419.174, 485.431 421.064 C 486.251 422.954, 486.938 423.825, 486.957 423 C 487.016 420.526, 483.634 415.946, 475.514 407.500 L 467.823 399.500 475.881 408.564 M 257.500 407 C 257.840 407.550, 258.343 408, 258.618 408 C 258.893 408, 258.840 407.550, 258.500 407 C 258.160 406.450, 257.657 406, 257.382 406 C 257.107 406, 257.160 406.450, 257.500 407 M 260 409.500 C 260 409.775, 260.225 410, 260.500 410 C 260.775 410, 261 409.775, 261 409.500 C 261 409.225, 260.775 409, 260.500 409 C 260.225 409, 260 409.225, 260 409.500 M 352 418.500 C 352 418.775, 352.225 419, 352.500 419 C 352.775 419, 353 418.775, 353 418.500 C 353 418.225, 352.775 418, 352.500 418 C 352.225 418, 352 418.225, 352 418.500 M 487.158 428 C 487.158 429.375, 487.385 429.938, 487.662 429.250 C 487.940 428.563, 487.940 427.438, 487.662 426.750 C 487.385 426.063, 487.158 426.625, 487.158 428 M 366 432.500 C 366 432.775, 366.225 433, 366.500 433 C 366.775 433, 367 432.775, 367 432.500 C 367 432.225, 366.775 432, 366.500 432 C 366.225 432, 366 432.225, 366 432.500 M 486 433 C 486 433.733, 486.300 434.033, 486.667 433.667 C 487.033 433.300, 487.033 432.700, 486.667 432.333 C 486.300 431.967, 486 432.267, 486 433 M 368 434.500 C 368 434.775, 368.225 435, 368.500 435 C 368.775 435, 369 434.775, 369 434.500 C 369 434.225, 368.775 434, 368.500 434 C 368.225 434, 368 434.225, 368 434.500 M 485 435.789 C 485 437.446, 439.404 482.209, 435.681 484.208 C 431.747 486.320, 425.063 486.471, 420.468 484.551 C 416.233 482.782, 415.899 483.379, 419.950 485.474 C 424.071 487.605, 432.774 487.437, 436.500 485.155 C 444.149 480.469, 487.114 436.781, 485.581 435.248 C 485.261 434.928, 485 435.172, 485 435.789 M 295 445.313 C 295 445.485, 296.462 446.948, 298.250 448.563 C 301.500 451.500, 301.500 451.500, 298.563 448.250 C 295.825 445.221, 295 444.540, 295 445.313 M 319 469.500 C 328.613 479.125, 336.704 487, 336.979 487 C 337.254 487, 329.613 479.125, 320 469.500 C 310.387 459.875, 302.296 452, 302.021 452 C 301.746 452, 309.387 459.875, 319 469.500 M 410 477.500 C 410 477.775, 410.225 478, 410.500 478 C 410.775 478, 411 477.775, 411 477.500 C 411 477.225, 410.775 477, 410.500 477 C 410.225 477, 410 477.225, 410 477.500 M 414.500 481 C 414.840 481.550, 415.343 482, 415.618 482 C 415.893 482, 415.840 481.550, 415.500 481 C 415.160 480.450, 414.657 480, 414.382 480 C 414.107 480, 414.160 480.450, 414.500 481 M 338 488.378 C 338 488.585, 338.788 489.373, 339.750 490.128 C 341.336 491.371, 341.371 491.336, 340.128 489.750 C 338.821 488.084, 338 487.555, 338 488.378 M 347.500 498 C 347.840 498.550, 348.343 499, 348.618 499 C 348.893 499, 348.840 498.550, 348.500 498 C 348.160 497.450, 347.657 497, 347.382 497 C 347.107 497, 347.160 497.450, 347.500 498 M 367.500 519 C 367.840 519.550, 368.343 520, 368.618 520 C 368.893 520, 368.840 519.550, 368.500 519 C 368.160 518.450, 367.657 518, 367.382 518 C 367.107 518, 367.160 518.450, 367.500 519 M 369 521.500 C 369 521.775, 369.225 522, 369.500 522 C 369.775 522, 370 521.775, 370 521.500 C 370 521.225, 369.775 521, 369.500 521 C 369.225 521, 369 521.225, 369 521.500 M 370 523.500 C 370 523.775, 370.225 524, 370.500 524 C 370.775 524, 371 523.775, 371 523.500 C 371 523.225, 370.775 523, 370.500 523 C 370.225 523, 370 523.225, 370 523.500 M 371 527 C 371 527.733, 371.300 528.033, 371.667 527.667 C 372.033 527.300, 372.033 526.700, 371.667 526.333 C 371.300 525.967, 371 526.267, 371 527 M 371.079 534.583 C 371.127 535.748, 371.364 535.985, 371.683 535.188 C 371.972 534.466, 371.936 533.603, 371.604 533.271 C 371.272 532.939, 371.036 533.529, 371.079 534.583 M 370 537.876 C 370 538.541, 367.878 541.429, 365.283 544.293 C 360.567 549.500, 360.567 549.500, 364.863 545.500 C 369.422 541.255, 371.536 538.203, 370.581 537.248 C 370.261 536.928, 370 537.211, 370 537.876" stroke="none" fill="#e7e7e2" fill-rule="evenodd"/><path d="M 291 11.478 C 280.925 14.915, 270.971 20.331, 262.886 26.774 C 251.717 35.673, 54.949 232.939, 47.871 242.332 C 24.406 273.473, 22.991 307.196, 43.838 338.500 C 50.213 348.072, 291.707 589.160, 297.218 591.453 C 310.313 596.902, 315.434 594.067, 344.086 565.500 C 383.451 526.252, 389.617 540.480, 289.402 439.323 C 144.525 293.083, 155.289 304.207, 154.110 299.524 C 153.060 295.352, 153.621 291.378, 155.824 287.389 C 158.200 283.087, 302.086 140.447, 305.736 138.776 C 317.576 133.354, 317.277 133.138, 368.736 184.378 C 430.086 245.468, 428.342 238.131, 390.528 276.023 L 367.555 299.043 338.028 269.627 C 295.938 227.696, 301.206 228.051, 264.880 264.687 C 237.837 291.960, 235.775 295.401, 240.504 305.367 C 242.853 310.317, 415.717 482.575, 420.218 484.451 C 431.144 489.004, 433.909 487.375, 461.534 460.110 C 495.236 426.846, 495.201 428.464, 462.922 395.569 L 442.640 374.899 470.292 347.200 C 517.990 299.420, 528.388 288.409, 531.925 281.938 C 533.259 279.497, 534.732 277.242, 535.199 276.927 C 535.665 276.611, 536.257 275.486, 536.514 274.427 C 536.771 273.367, 538.065 269.319, 539.389 265.432 C 547.653 241.166, 544.559 216.677, 530.308 193.569 C 524.250 183.746, 360.055 21, 356.203 21 C 355.755 21, 353.956 19.943, 352.205 18.651 C 350.454 17.360, 345.079 15.061, 340.261 13.544 C 335.442 12.027, 330.825 10.450, 329.999 10.040 C 326.187 8.146, 297.687 9.196, 291 11.478" stroke="none" fill="#fbfbfb" fill-rule="evenodd"/></svg>
